<svg width="76" height="13" viewBox="0 0 76 13" fill="none" xmlns="http://www.w3.org/2000/svg">
<path d="M9.69531 12H8.36719V1.75781H4.65625L4.41406 3.63281C4.09635 6.1276 3.8151 7.95312 3.57031 9.10938C3.33073 10.2604 3.01302 11.0625 2.61719 11.5156C2.22135 11.9688 1.69531 12.1901 1.03906 12.1797C0.653646 12.1797 0.307292 12.1146 0 11.9844V10.8672C0.28125 11.0026 0.575521 11.0703 0.882812 11.0703C1.15885 11.0703 1.39844 10.9583 1.60156 10.7344C1.8099 10.5052 1.99219 10.112 2.14844 9.55469C2.3099 8.99219 2.51042 7.92969 2.75 6.36719C2.99479 4.79948 3.26302 2.86979 3.55469 0.578125H9.69531V12ZM22.75 6.27344C22.75 8.10156 22.2865 9.53906 21.3594 10.5859C20.4375 11.6328 19.1536 12.1562 17.5078 12.1562C15.8255 12.1562 14.526 11.6432 13.6094 10.6172C12.6979 9.58594 12.2422 8.13281 12.2422 6.25781C12.2422 4.39844 12.7005 2.95833 13.6172 1.9375C14.5339 0.911458 15.8359 0.398438 17.5234 0.398438C19.1641 0.398438 20.4453 0.919271 21.3672 1.96094C22.2891 3.0026 22.75 4.4401 22.75 6.27344ZM13.6484 6.27344C13.6484 7.82031 13.9766 8.99479 14.6328 9.79688C15.2943 10.5938 16.2526 10.9922 17.5078 10.9922C18.7734 10.9922 19.7292 10.5938 20.375 9.79688C21.0208 9 21.3438 7.82552 21.3438 6.27344C21.3438 4.73698 21.0208 3.57292 20.375 2.78125C19.7344 1.98438 18.7839 1.58594 17.5234 1.58594C16.2578 1.58594 15.2943 1.98698 14.6328 2.78906C13.9766 3.58594 13.6484 4.7474 13.6484 6.27344ZM31.6719 0.578125V1.77344H26.6328V12H25.3047V0.578125H31.6719ZM43.5469 6.27344C43.5469 8.10156 43.0833 9.53906 42.1562 10.5859C41.2344 11.6328 39.9505 12.1562 38.3047 12.1562C36.6224 12.1562 35.3229 11.6432 34.4062 10.6172C33.4948 9.58594 33.0391 8.13281 33.0391 6.25781C33.0391 4.39844 33.4974 2.95833 34.4141 1.9375C35.3307 0.911458 36.6328 0.398438 38.3203 0.398438C39.9609 0.398438 41.2422 0.919271 42.1641 1.96094C43.0859 3.0026 43.5469 4.4401 43.5469 6.27344ZM34.4453 6.27344C34.4453 7.82031 34.7734 8.99479 35.4297 9.79688C36.0911 10.5938 37.0495 10.9922 38.3047 10.9922C39.5703 10.9922 40.526 10.5938 41.1719 9.79688C41.8177 9 42.1406 7.82552 42.1406 6.27344C42.1406 4.73698 41.8177 3.57292 41.1719 2.78125C40.5312 1.98438 39.5807 1.58594 38.3203 1.58594C37.0547 1.58594 36.0911 1.98698 35.4297 2.78906C34.7734 3.58594 34.4453 4.7474 34.4453 6.27344ZM49.6172 12H48.2891V1.75781H44.6719V0.578125H53.2344V1.75781H49.6172V12ZM54.9766 0.578125H56.2188V6.92969C56.2188 8.10156 56.1823 9.16146 56.1094 10.1094H56.1719L62.5781 0.578125H64.0312V12H62.7812V5.71094C62.7812 4.66406 62.8255 3.5651 62.9141 2.41406H62.8438L56.4297 12H54.9766V0.578125ZM75.6875 12H74.3594V1.75781H68.4922V12H67.1641V0.578125H75.6875V12Z" fill="black"/>
</svg>
